<svg xmlns="http://www.w3.org/2000/svg" xmlns:xlink="http://www.w3.org/1999/xlink" width="140" height="140" viewBox="0 0 140 140">
  <defs>
    <style>
      .cls-1 {
        clip-path: url(#clip-ConsumptionB);
      }

      .cls-2 {
        fill: none;
        stroke: #707070;
      }

      .cls-3 {
        fill: #707070;
      }

      .cls-4 {
        fill: rgba(237,237,237,0);
      }
    </style>
    <clipPath id="clip-ConsumptionB">
      <rect width="140" height="140"/>
    </clipPath>
  </defs>
  <g id="ConsumptionB" class="cls-1">
    <rect class="cls-4" width="140" height="140"/>
    <path id="Pfad_305" data-name="Pfad 305" class="cls-2" d="M10013.474,9899.924" transform="translate(-9949 -9850)"/>
    <path id="Ausschluss_17" data-name="Ausschluss 17" class="cls-3" d="M-10387.5-9827a11.432,11.432,0,0,1-8.134-3.368,11.432,11.432,0,0,1-3.368-8.134,11.422,11.422,0,0,1,3.368-8.131,11.434,11.434,0,0,1,8.134-3.367,11.427,11.427,0,0,1,8.131,3.367,11.422,11.422,0,0,1,3.368,8.131,11.432,11.432,0,0,1-3.368,8.134A11.426,11.426,0,0,1-10387.5-9827Zm1.5-8a1,1,0,0,0-1,1v2a1,1,0,0,0,1,1h4.34a2.342,2.342,0,0,0,1.66-1.553V-9834a1,1,0,0,0-1-1Zm-8,0a1,1,0,0,0-1,1v1.362a2.437,2.437,0,0,0,1.632,1.639h4.368a1,1,0,0,0,1-1v-2a1,1,0,0,0-1-1Zm8-5a1,1,0,0,0-1,1v2a1,1,0,0,0,1,1h5a1,1,0,0,0,1-1v-2a1,1,0,0,0-1-1Zm-8,0a1,1,0,0,0-1,1v2a1,1,0,0,0,1,1h5a1,1,0,0,0,1-1v-2a1,1,0,0,0-1-1Zm8-5a1,1,0,0,0-1,1v2a1,1,0,0,0,1,1h5a1,1,0,0,0,1-1v-1.345a2.357,2.357,0,0,0-1.582-1.654Zm-7.334-.154c-.572,0-1.665,1.313-1.665,1.851v1.3a1,1,0,0,0,1,1h5a1,1,0,0,0,1-1v-2a1,1,0,0,0-1-1l-4.335-.154Z" transform="translate(10466 9921)"/>
    <path id="Pfad_305-2" data-name="Pfad 305" class="cls-2" d="M10013.474,9899.924" transform="translate(-9949 -9850)"/>
    <g id="noun_Money_3162552" transform="translate(52.187 49)">
      <g id="Gruppe_101" data-name="Gruppe 101">
        <path id="Pfad_315" data-name="Pfad 315" class="cls-3" d="M11.323,8.753H32.761a1.786,1.786,0,0,0,1.786-1.786V4.286A1.786,1.786,0,0,0,32.761,2.5H11.323A1.786,1.786,0,0,0,9.537,4.286V6.967A1.786,1.786,0,0,0,11.323,8.753Z" transform="translate(-9.537 -2.5)"/>
        <path id="Pfad_316" data-name="Pfad 316" class="cls-3" d="M15.167,21.175v2.681a1.786,1.786,0,0,0,1.786,1.786H38.391a1.786,1.786,0,0,0,1.786-1.786V21.175a1.786,1.786,0,0,0-1.786-1.786H16.953A1.786,1.786,0,0,0,15.167,21.175Z" transform="translate(-12.666 -11.886)"/>
        <path id="Pfad_317" data-name="Pfad 317" class="cls-3" d="M11.323,42.531H28.049a18.98,18.98,0,0,1,2.832-1.012,20.765,20.765,0,0,1,3.666-.531V38.064a1.786,1.786,0,0,0-1.786-1.786H11.323a1.786,1.786,0,0,0-1.786,1.786v2.681A1.786,1.786,0,0,0,11.323,42.531Z" transform="translate(-9.537 -21.272)"/>
        <path id="Pfad_318" data-name="Pfad 318" class="cls-3" d="M21.6,70.056H10.914a1.623,1.623,0,0,0-1.377,1.788V74.52a1.623,1.623,0,0,0,1.377,1.788H21.758a13.806,13.806,0,0,1-.424-3.439A14.945,14.945,0,0,1,21.6,70.056Z" transform="translate(-9.537 -40.043)"/>
        <path id="Pfad_319" data-name="Pfad 319" class="cls-3" d="M30.248,53.167h-13.7a1.623,1.623,0,0,0-1.377,1.788v2.676a1.623,1.623,0,0,0,1.377,1.788h9.082A10.556,10.556,0,0,1,30.248,53.167Z" transform="translate(-13.24 -30.657)"/>
      </g>
    </g>
  </g>
</svg>
