<svg xmlns="http://www.w3.org/2000/svg" xmlns:xlink="http://www.w3.org/1999/xlink" width="140" height="140" viewBox="0 0 140 140">
  <defs>
    <style>
      .cls-1 {
        clip-path: url(#clip-Consumption);
      }

      .cls-2 {
        fill: none;
        stroke: #707070;
      }

      .cls-3 {
        fill: #fff;
      }

      .cls-4 {
        fill: rgba(237,237,237,0);
      }
    </style>
    <clipPath id="clip-Consumption">
      <rect width="140" height="140"/>
    </clipPath>
  </defs>
  <g id="Consumption" class="cls-1">
    <rect class="cls-4" width="140" height="140"/>
    <path id="Pfad_305" data-name="Pfad 305" class="cls-2" d="M10013.474,9899.924" transform="translate(-9949 -9850)"/>
    <g id="noun_Money_3162552" transform="translate(52.187 49)">
      <g id="Gruppe_101" data-name="Gruppe 101">
        <path id="Pfad_315" data-name="Pfad 315" class="cls-3" d="M11.323,8.753H32.761a1.786,1.786,0,0,0,1.786-1.786V4.286A1.786,1.786,0,0,0,32.761,2.5H11.323A1.786,1.786,0,0,0,9.537,4.286V6.967A1.786,1.786,0,0,0,11.323,8.753Z" transform="translate(-9.537 -2.5)"/>
        <path id="Pfad_316" data-name="Pfad 316" class="cls-3" d="M15.167,21.175v2.681a1.786,1.786,0,0,0,1.786,1.786H38.391a1.786,1.786,0,0,0,1.786-1.786V21.175a1.786,1.786,0,0,0-1.786-1.786H16.953A1.786,1.786,0,0,0,15.167,21.175Z" transform="translate(-12.666 -11.886)"/>
        <path id="Pfad_317" data-name="Pfad 317" class="cls-3" d="M11.323,42.53H32.761a1.786,1.786,0,0,0,1.786-1.786V38.064a1.786,1.786,0,0,0-1.786-1.786H11.323a1.786,1.786,0,0,0-1.786,1.786v2.681A1.786,1.786,0,0,0,11.323,42.53Z" transform="translate(-9.537 -21.272)"/>
        <path id="Pfad_318" data-name="Pfad 318" class="cls-3" d="M25.206,70.056H11.325a1.788,1.788,0,0,0-1.788,1.788V74.52a1.788,1.788,0,0,0,1.788,1.788H25.406a10.826,10.826,0,0,1-.55-3.439A11.635,11.635,0,0,1,25.206,70.056Z" transform="translate(-9.537 -40.043)"/>
        <path id="Pfad_319" data-name="Pfad 319" class="cls-3" d="M34.75,53.167H16.955a1.788,1.788,0,0,0-1.788,1.788v2.676a1.788,1.788,0,0,0,1.788,1.788H28.747A11.322,11.322,0,0,1,34.75,53.167Z" transform="translate(-12.666 -30.658)"/>
        <path id="Pfad_320" data-name="Pfad 320" class="cls-3" d="M58.357,55.315a7.281,7.281,0,0,0-.738-.038,9.35,9.35,0,0,0-8.441,5.315,7.257,7.257,0,0,0-.5,1.251,9.136,9.136,0,0,0-.438,2.814A9.007,9.007,0,0,0,48.9,68.1a9.374,9.374,0,1,0,9.454-12.78Zm.3,7.178a.377.377,0,0,1,.35.35v1.038a.365.365,0,0,1-.35.338H55.194v.875h3.464a.365.365,0,0,1,.35.338V66.47a.377.377,0,0,1-.35.35H55.719a1.723,1.723,0,0,0,.163.25,3.249,3.249,0,0,0,2.689,1.488,3.025,3.025,0,0,0,1.913-.7.372.372,0,0,1,.425,0l.963.875a.43.43,0,0,1,0,.6,5.259,5.259,0,0,1-3.551,1.388,5.33,5.33,0,0,1-4.5-2.626,5.991,5.991,0,0,1-.613-1.276h-.863a.377.377,0,0,1-.35-.35V65.432a.365.365,0,0,1,.35-.338h.513v-.875h-.513a.365.365,0,0,1-.35-.338V62.843a.4.4,0,0,1,.438-.35h.863a4.219,4.219,0,0,1,.275-.65,5.865,5.865,0,0,1,.788-1.251,5.225,5.225,0,0,1,4.052-2,.612.612,0,0,1,.15.012,5.157,5.157,0,0,1,3.314,1.376.344.344,0,0,1,0,.525l-.963.95a.37.37,0,0,1-.425,0,3.025,3.025,0,0,0-1.913-.7,3.31,3.31,0,0,0-2.851,1.738h2.939Z" transform="translate(-31.046 -31.831)"/>
      </g>
    </g>
  </g>
</svg>
