<svg xmlns="http://www.w3.org/2000/svg" xmlns:xlink="http://www.w3.org/1999/xlink" width="140" height="140" viewBox="0 0 140 140">
  <defs>
    <style>
      .cls-1 {
        clip-path: url(#clip-ConsumptionB-voltage);
      }

      .cls-2 {
        fill: #707070;
      }

      .cls-3 {
        fill: none;
        stroke: #707070;
      }

      .cls-4 {
        fill: rgba(237,237,237,0);
      }
    </style>
    <clipPath id="clip-ConsumptionB-voltage">
      <rect width="140" height="140"/>
    </clipPath>
  </defs>
  <g id="ConsumptionB-voltage" class="cls-1">
    <rect class="cls-4" width="140" height="140"/>
    <path id="Ausschluss_14" data-name="Ausschluss 14" class="cls-2" d="M-10387.5-9994a11.437,11.437,0,0,1-8.134-3.367,11.426,11.426,0,0,1-3.368-8.131,11.432,11.432,0,0,1,3.368-8.134,11.432,11.432,0,0,1,8.134-3.368,11.426,11.426,0,0,1,8.131,3.368,11.432,11.432,0,0,1,3.368,8.134A11.512,11.512,0,0,1-10387.5-9994Zm-.5-7a1,1,0,0,0-1,1v2a1,1,0,0,0,1,1h1a1,1,0,0,0,1-1v-2a1,1,0,0,0-1-1Zm-4.773-5.134c-.24,0-.462.043-.462.355a3.706,3.706,0,0,0,.729,2.2c.933,1.249,2.626,1.882,5.033,1.882a6.175,6.175,0,0,0,4.521-1.468,3.877,3.877,0,0,0,1.112-2.722v-.013c0-.229-.21-.23-.379-.231h-.041c-.053,0-.976,0-2.744,0-3.045,0-7.533,0-7.533,0l-.111,0h-.04Zm.073-1.866a.3.3,0,0,0-.3.3v.4a.3.3,0,0,0,.3.3h10.4a.3.3,0,0,0,.3-.3v-.4a.3.3,0,0,0-.3-.3h-.7v-3a1,1,0,0,0-1-1,1,1,0,0,0-1,1v3h-5v-3a1,1,0,0,0-1-1,1,1,0,0,0-1,1v3Z" transform="translate(10466 10088)"/>
    <path id="Pfad_305" data-name="Pfad 305" class="cls-3" d="M10013.474,9899.924" transform="translate(-9949 -9850)"/>
    <g id="noun_Money_3162552" transform="translate(52.187 49)">
      <g id="Gruppe_101" data-name="Gruppe 101">
        <path id="Pfad_315" data-name="Pfad 315" class="cls-2" d="M11.323,8.753H32.761a1.786,1.786,0,0,0,1.786-1.786V4.286A1.786,1.786,0,0,0,32.761,2.5H11.323A1.786,1.786,0,0,0,9.537,4.286V6.967A1.786,1.786,0,0,0,11.323,8.753Z" transform="translate(-9.537 -2.5)"/>
        <path id="Pfad_316" data-name="Pfad 316" class="cls-2" d="M15.167,21.175v2.681a1.786,1.786,0,0,0,1.786,1.786H38.391a1.786,1.786,0,0,0,1.786-1.786V21.175a1.786,1.786,0,0,0-1.786-1.786H16.953A1.786,1.786,0,0,0,15.167,21.175Z" transform="translate(-12.666 -11.886)"/>
        <path id="Pfad_317" data-name="Pfad 317" class="cls-2" d="M11.323,42.531H28.049a18.98,18.98,0,0,1,2.832-1.012,20.765,20.765,0,0,1,3.666-.531V38.064a1.786,1.786,0,0,0-1.786-1.786H11.323a1.786,1.786,0,0,0-1.786,1.786v2.681A1.786,1.786,0,0,0,11.323,42.531Z" transform="translate(-9.537 -21.272)"/>
        <path id="Pfad_318" data-name="Pfad 318" class="cls-2" d="M21.6,70.056H10.914a1.623,1.623,0,0,0-1.377,1.788V74.52a1.623,1.623,0,0,0,1.377,1.788H21.758a13.806,13.806,0,0,1-.424-3.439A14.945,14.945,0,0,1,21.6,70.056Z" transform="translate(-9.537 -40.043)"/>
        <path id="Pfad_319" data-name="Pfad 319" class="cls-2" d="M30.248,53.167h-13.7a1.623,1.623,0,0,0-1.377,1.788v2.676a1.623,1.623,0,0,0,1.377,1.788h9.082A10.556,10.556,0,0,1,30.248,53.167Z" transform="translate(-13.24 -30.657)"/>
      </g>
    </g>
  </g>
</svg>
