<svg xmlns="http://www.w3.org/2000/svg" xmlns:xlink="http://www.w3.org/1999/xlink" width="140" height="140" viewBox="0 0 140 140">
  <defs>
    <style>
      .cls-1 {
        clip-path: url(#clip-HomeWhite);
      }

      .cls-2, .cls-3, .cls-4 {
        fill: #ff9100;
      }

      .cls-2 {
        opacity: 0.17;
      }

      .cls-3 {
        opacity: 0.4;
      }

      .cls-5 {
        fill: #fff;
      }

      .cls-6 {
        fill: rgba(237,237,237,0);
      }

      .cls-7 {
        filter: url(#Rechteck_1575);
      }

      .cls-8 {
        filter: url(#Vereinigungsmenge_7);
      }
    </style>
    <filter id="Vereinigungsmenge_7" x="35" y="32.984" width="70.407" height="78.017" filterUnits="userSpaceOnUse">
      <feOffset dy="3" input="SourceAlpha"/>
      <feGaussianBlur stdDeviation="3" result="blur"/>
      <feFlood flood-opacity="0.161"/>
      <feComposite operator="in" in2="blur"/>
      <feComposite in="SourceGraphic"/>
    </filter>
    <filter id="Rechteck_1575" x="64" y="64" width="41" height="47" filterUnits="userSpaceOnUse">
      <feOffset dy="3" input="SourceAlpha"/>
      <feGaussianBlur stdDeviation="3" result="blur-2"/>
      <feFlood flood-opacity="0.161"/>
      <feComposite operator="in" in2="blur-2"/>
      <feComposite in="SourceGraphic"/>
    </filter>
    <clipPath id="clip-HomeWhite">
      <rect width="140" height="140"/>
    </clipPath>
  </defs>
  <g id="HomeWhite" class="cls-1">
    <rect class="cls-6" width="140" height="140"/>
    <path id="Polygon_4" data-name="Polygon 4" class="cls-2" d="M53.8,0a3,3,0,0,1,2.576,1.463l16.71,28a3,3,0,0,1,0,3.075l-16.71,28A3,3,0,0,1,53.8,62H20.2a3,3,0,0,1-2.576-1.463l-16.71-28a3,3,0,0,1,0-3.075l16.71-28A3,3,0,0,1,20.2,0Z" transform="translate(74.708 24.7) rotate(45)"/>
    <path id="Polygon_3" data-name="Polygon 3" class="cls-3" d="M51.554,0a3,3,0,0,1,2.571,1.453l15.945,26.5a3,3,0,0,1,0,3.093l-15.945,26.5A3,3,0,0,1,51.554,59H19.446a3,3,0,0,1-2.571-1.453L.931,31.047a3,3,0,0,1,0-3.093l15.945-26.5A3,3,0,0,1,19.446,0Z" transform="translate(61.166 27.068) rotate(30)"/>
    <path id="Polygon_2" data-name="Polygon 2" class="cls-4" d="M48.549,0a3,3,0,0,1,2.575,1.46l14.955,25a3,3,0,0,1,0,3.08l-14.955,25A3,3,0,0,1,48.549,56h-30.1a3,3,0,0,1-2.575-1.46L.921,29.54a3,3,0,0,1,0-3.08l14.955-25A3,3,0,0,1,18.451,0Z" transform="matrix(0.966, 0.259, -0.259, 0.966, 49.422, 32.025)"/>
    <g class="cls-8" transform="matrix(1, 0, 0, 1, 0, 0)">
      <path id="Vereinigungsmenge_7-2" data-name="Vereinigungsmenge 7" class="cls-5" d="M-9578-9789.983a3,3,0,0,1-3-3v-35c0-1.656,1.953-2.883,7.953-8.052s12.912-10.741,15.353-12.62,3.313-1.7,5.416,0,17.726,14.188,19.516,15.666,4.17,3.35,4.17,5.006v4.168a1.127,1.127,0,0,1-1.033,1.083h-25.243c-.954,0-2.131.066-2.131,1.414v28.336a3,3,0,0,1-3,3Z" transform="translate(9625 9888.98)"/>
    </g>
    <g class="cls-7" transform="matrix(1, 0, 0, 1, 0, 0)">
      <rect id="Rechteck_1575-2" data-name="Rechteck 1575" class="cls-5" width="23" height="29" rx="3" transform="translate(96 99) rotate(180)"/>
    </g>
  </g>
</svg>
