<svg xmlns="http://www.w3.org/2000/svg" xmlns:xlink="http://www.w3.org/1999/xlink" width="140" height="140" viewBox="0 0 140 140">
  <defs>
    <style>
      .cls-1 {
        clip-path: url(#clip-Home);
      }

      .cls-2 {
        fill: #707070;
      }

      .cls-3 {
        fill: rgba(237,237,237,0);
      }

      .cls-4 {
        filter: url(#Rechteck_1575);
      }

      .cls-5 {
        filter: url(#Vereinigungsmenge_7);
      }
    </style>
    <filter id="Vereinigungsmenge_7" x="35" y="32.984" width="70.407" height="78.017" filterUnits="userSpaceOnUse">
      <feOffset dy="3" input="SourceAlpha"/>
      <feGaussianBlur stdDeviation="3" result="blur"/>
      <feFlood flood-opacity="0.161"/>
      <feComposite operator="in" in2="blur"/>
      <feComposite in="SourceGraphic"/>
    </filter>
    <filter id="Rechteck_1575" x="64" y="64" width="41" height="47" filterUnits="userSpaceOnUse">
      <feOffset dy="3" input="SourceAlpha"/>
      <feGaussianBlur stdDeviation="3" result="blur-2"/>
      <feFlood flood-opacity="0.161"/>
      <feComposite operator="in" in2="blur-2"/>
      <feComposite in="SourceGraphic"/>
    </filter>
    <clipPath id="clip-Home">
      <rect width="140" height="140"/>
    </clipPath>
  </defs>
  <g id="Home" class="cls-1">
    <rect class="cls-3" width="140" height="140"/>
    <g class="cls-5" transform="matrix(1, 0, 0, 1, 0, 0)">
      <path id="Vereinigungsmenge_7-2" data-name="Vereinigungsmenge 7" class="cls-2" d="M-9578-9789.983a3,3,0,0,1-3-3v-35c0-1.656,1.953-2.883,7.953-8.052s12.912-10.741,15.353-12.62,3.313-1.7,5.416,0,17.726,14.188,19.516,15.666,4.17,3.35,4.17,5.006v4.168a1.127,1.127,0,0,1-1.033,1.083h-25.243c-.954,0-2.131.066-2.131,1.414v28.336a3,3,0,0,1-3,3Z" transform="translate(9625 9888.98)"/>
    </g>
    <g class="cls-4" transform="matrix(1, 0, 0, 1, 0, 0)">
      <rect id="Rechteck_1575-2" data-name="Rechteck 1575" class="cls-2" width="23" height="29" rx="3" transform="translate(96 99) rotate(180)"/>
    </g>
  </g>
</svg>
