<svg xmlns="http://www.w3.org/2000/svg" xmlns:xlink="http://www.w3.org/1999/xlink" width="140" height="140" viewBox="0 0 140 140">
  <defs>
    <style>
      .cls-1 {
        clip-path: url(#clip-PowerwallWhite);
      }

      .cls-2, .cls-3, .cls-4 {
        fill: #ff9100;
      }

      .cls-2 {
        opacity: 0.17;
      }

      .cls-3 {
        opacity: 0.4;
      }

      .cls-5 {
        fill: #fff;
      }

      .cls-6 {
        fill: rgba(237,237,237,0);
      }

      .cls-7 {
        filter: url(#Rechteck_1550);
      }

      .cls-8 {
        filter: url(#Rechteck_1549);
      }

      .cls-9 {
        filter: url(#Rechteck_1548);
      }

      .cls-10 {
        filter: url(#Rechteck_1547);
      }
    </style>
    <filter id="Rechteck_1547" x="37" y="86" width="66" height="34" filterUnits="userSpaceOnUse">
      <feOffset dy="3" input="SourceAlpha"/>
      <feGaussianBlur stdDeviation="3" result="blur"/>
      <feFlood flood-opacity="0.161"/>
      <feComposite operator="in" in2="blur"/>
      <feComposite in="SourceGraphic"/>
    </filter>
    <filter id="Rechteck_1548" x="37" y="66" width="66" height="34" filterUnits="userSpaceOnUse">
      <feOffset dy="3" input="SourceAlpha"/>
      <feGaussianBlur stdDeviation="3" result="blur-2"/>
      <feFlood flood-opacity="0.161"/>
      <feComposite operator="in" in2="blur-2"/>
      <feComposite in="SourceGraphic"/>
    </filter>
    <filter id="Rechteck_1549" x="37" y="46" width="66" height="34" filterUnits="userSpaceOnUse">
      <feOffset dy="3" input="SourceAlpha"/>
      <feGaussianBlur stdDeviation="3" result="blur-3"/>
      <feFlood flood-opacity="0.161"/>
      <feComposite operator="in" in2="blur-3"/>
      <feComposite in="SourceGraphic"/>
    </filter>
    <filter id="Rechteck_1550" x="37" y="26" width="66" height="34" filterUnits="userSpaceOnUse">
      <feOffset dy="3" input="SourceAlpha"/>
      <feGaussianBlur stdDeviation="3" result="blur-4"/>
      <feFlood flood-opacity="0.161"/>
      <feComposite operator="in" in2="blur-4"/>
      <feComposite in="SourceGraphic"/>
    </filter>
    <clipPath id="clip-PowerwallWhite">
      <rect width="140" height="140"/>
    </clipPath>
  </defs>
  <g id="PowerwallWhite" class="cls-1">
    <rect class="cls-6" width="140" height="140"/>
    <path id="Polygon_4" data-name="Polygon 4" class="cls-2" d="M53.8,0a3,3,0,0,1,2.576,1.463l16.71,28a3,3,0,0,1,0,3.075l-16.71,28A3,3,0,0,1,53.8,62H20.2a3,3,0,0,1-2.576-1.463l-16.71-28a3,3,0,0,1,0-3.075l16.71-28A3,3,0,0,1,20.2,0Z" transform="translate(123.034 55.541) rotate(135)"/>
    <path id="Polygon_3" data-name="Polygon 3" class="cls-3" d="M51.554,0a3,3,0,0,1,2.571,1.453l15.945,26.5a3,3,0,0,1,0,3.093l-15.945,26.5A3,3,0,0,1,51.554,59H19.446a3,3,0,0,1-2.571-1.453L.931,31.047a3,3,0,0,1,0-3.093l15.945-26.5A3,3,0,0,1,19.446,0Z" transform="translate(120.666 41.999) rotate(120)"/>
    <path id="Polygon_2" data-name="Polygon 2" class="cls-4" d="M48.549,0a3,3,0,0,1,2.575,1.46l14.955,25a3,3,0,0,1,0,3.08l-14.955,25A3,3,0,0,1,48.549,56h-30.1a3,3,0,0,1-2.575-1.46L.921,29.54a3,3,0,0,1,0-3.08l14.955-25A3,3,0,0,1,18.451,0Z" transform="matrix(-0.259, 0.966, -0.966, -0.259, 115.71, 30.256)"/>
    <g class="cls-10" transform="matrix(1, 0, 0, 1, 0, 0)">
      <rect id="Rechteck_1547-2" data-name="Rechteck 1547" class="cls-5" width="48" height="16" rx="3" transform="translate(46 92)"/>
    </g>
    <g class="cls-9" transform="matrix(1, 0, 0, 1, 0, 0)">
      <rect id="Rechteck_1548-2" data-name="Rechteck 1548" class="cls-5" width="48" height="16" rx="3" transform="translate(46 72)"/>
    </g>
    <g class="cls-8" transform="matrix(1, 0, 0, 1, 0, 0)">
      <rect id="Rechteck_1549-2" data-name="Rechteck 1549" class="cls-5" width="48" height="16" rx="3" transform="translate(46 52)"/>
    </g>
    <g class="cls-7" transform="matrix(1, 0, 0, 1, 0, 0)">
      <rect id="Rechteck_1550-2" data-name="Rechteck 1550" class="cls-5" width="48" height="16" rx="3" transform="translate(46 32)"/>
    </g>
  </g>
</svg>
