<svg xmlns="http://www.w3.org/2000/svg" xmlns:xlink="http://www.w3.org/1999/xlink" width="140" height="140" viewBox="0 0 140 140">
  <defs>
    <style>
      .cls-1 {
        clip-path: url(#clip-Analyse_2);
      }

      .cls-2 {
        fill: #828282;
        fill-rule: evenodd;
      }

      .cls-3 {
        fill: rgba(237,237,237,0);
      }
    </style>
    <clipPath id="clip-Analyse_2">
      <rect width="140" height="140"/>
    </clipPath>
  </defs>
  <g id="Analyse_2" data-name="Analyse – 2" class="cls-1">
    <rect class="cls-3" width="140" height="140"/>
    <g id="noun_Settings_299140" transform="translate(40.01 39.789)">
      <g id="Gruppe_2" data-name="Gruppe 2" transform="translate(0 0)">
        <g id="Gruppe_1" data-name="Gruppe 1">
          <path id="Pfad_2" data-name="Pfad 2" class="cls-2" d="M62.531,39.467l-2.654-1.995c.025-.415.036-.833.036-1.247s-.011-.833-.036-1.247l2.654-1.995a7.072,7.072,0,0,0,1.825-9.21l-3.3-5.493a7.216,7.216,0,0,0-8.688-2.937l-3.333,1.283a25.267,25.267,0,0,0-2.572-1.434l-.473-3.176A7.132,7.132,0,0,0,38.969,6H32.361a7.126,7.126,0,0,0-7.018,6.029l-.47,3.163A24.218,24.218,0,0,0,22.3,16.628l-3.333-1.286a7.2,7.2,0,0,0-8.688,2.94L6.974,23.769A7.076,7.076,0,0,0,8.8,32.98l2.652,2c-.022.415-.033.833-.033,1.247s.011.833.033,1.247L8.8,39.464a7.08,7.08,0,0,0-1.827,9.213l3.308,5.493a7.213,7.213,0,0,0,8.683,2.937L22.3,55.822a23.743,23.743,0,0,0,2.572,1.437l.47,3.163a7.126,7.126,0,0,0,7.018,6.029h6.608a7.138,7.138,0,0,0,7.02-6.029l.47-3.163a24.748,24.748,0,0,0,2.572-1.434l3.333,1.283a7.2,7.2,0,0,0,8.688-2.94l3.3-5.479a7.077,7.077,0,0,0-1.819-9.221Zm-8.114-3.242a17.246,17.246,0,0,1-.4,3.712l5.212,3.921a1.548,1.548,0,0,1,.418,1.987l-3.3,5.49a1.693,1.693,0,0,1-2,.643l-6.152-2.366a18.939,18.939,0,0,1-6.7,3.715l-.937,6.287a1.636,1.636,0,0,1-1.583,1.341H32.361a1.634,1.634,0,0,1-1.583-1.341l-.937-6.287a18.963,18.963,0,0,1-6.7-3.715l-6.149,2.366a1.693,1.693,0,0,1-2-.643l-3.306-5.49a1.545,1.545,0,0,1,.42-1.987l5.21-3.921a17.376,17.376,0,0,1,0-7.424L12.1,28.591a1.544,1.544,0,0,1-.42-1.987l3.306-5.49a1.693,1.693,0,0,1,2-.643l6.149,2.366a18.962,18.962,0,0,1,6.7-3.715l.937-6.287A1.634,1.634,0,0,1,32.361,11.5h6.608a1.636,1.636,0,0,1,1.583,1.341l.937,6.287a18.939,18.939,0,0,1,6.7,3.715l6.152-2.366a1.693,1.693,0,0,1,2,.643l3.3,5.49a1.548,1.548,0,0,1-.418,1.987l-5.212,3.921a17.246,17.246,0,0,1,.4,3.712ZM35.391,25.234A10.991,10.991,0,1,0,46.382,36.225,10.991,10.991,0,0,0,35.391,25.234Zm0,16.486a5.5,5.5,0,1,1,5.5-5.5,5.5,5.5,0,0,1-5.5,5.5" transform="translate(-6 -6)"/>
        </g>
      </g>
    </g>
  </g>
</svg>
