<svg xmlns="http://www.w3.org/2000/svg" xmlns:xlink="http://www.w3.org/1999/xlink" width="140" height="140" viewBox="0 0 140 140">
  <defs>
    <style>
      .cls-1 {
        clip-path: url(#clip-settingsWhite);
      }

      .cls-2, .cls-3, .cls-4 {
        fill: #ff9100;
      }

      .cls-2 {
        opacity: 0.17;
      }

      .cls-3 {
        opacity: 0.4;
      }

      .cls-5 {
        fill: #fff;
        fill-rule: evenodd;
      }

      .cls-6 {
        fill: rgba(237,237,237,0);
      }

      .cls-7 {
        filter: url(#Pfad_2);
      }
    </style>
    <filter id="Pfad_2" x="31.01" y="33.789" width="77.332" height="78.45" filterUnits="userSpaceOnUse">
      <feOffset dy="3" input="SourceAlpha"/>
      <feGaussianBlur stdDeviation="3" result="blur"/>
      <feFlood flood-opacity="0.161"/>
      <feComposite operator="in" in2="blur"/>
      <feComposite in="SourceGraphic"/>
    </filter>
    <clipPath id="clip-settingsWhite">
      <rect width="140" height="140"/>
    </clipPath>
  </defs>
  <g id="settingsWhite" class="cls-1">
    <rect class="cls-6" width="140" height="140"/>
    <g id="Gruppe_105" data-name="Gruppe 105" transform="matrix(-0.259, -0.966, 0.966, -0.259, -7663.494, 12290.694)">
      <path id="Polygon_4" data-name="Polygon 4" class="cls-2" d="M53.8,0a3,3,0,0,1,2.576,1.463l16.71,28a3,3,0,0,1,0,3.075l-16.71,28A3,3,0,0,1,53.8,62H20.2a3,3,0,0,1-2.576-1.463l-16.71-28a3,3,0,0,1,0-3.075l16.71-28A3,3,0,0,1,20.2,0Z" transform="translate(9805.708 10585.7) rotate(45)"/>
      <path id="Polygon_3" data-name="Polygon 3" class="cls-3" d="M51.554,0a3,3,0,0,1,2.571,1.453l15.945,26.5a3,3,0,0,1,0,3.093l-15.945,26.5A3,3,0,0,1,51.554,59H19.446a3,3,0,0,1-2.571-1.453L.931,31.047a3,3,0,0,1,0-3.093l15.945-26.5A3,3,0,0,1,19.446,0Z" transform="translate(9792.166 10588.068) rotate(30)"/>
      <path id="Polygon_2" data-name="Polygon 2" class="cls-4" d="M48.549,0a3,3,0,0,1,2.575,1.46l14.955,25a3,3,0,0,1,0,3.08l-14.955,25A3,3,0,0,1,48.549,56h-30.1a3,3,0,0,1-2.575-1.46L.921,29.54a3,3,0,0,1,0-3.08l14.955-25A3,3,0,0,1,18.451,0Z" transform="matrix(0.966, 0.259, -0.259, 0.966, 9780.423, 10593.024)"/>
    </g>
    <g id="noun_Settings_299140" transform="translate(40.01 39.789)">
      <g id="Gruppe_2" data-name="Gruppe 2" transform="translate(0 0)">
        <g id="Gruppe_1" data-name="Gruppe 1">
          <g class="cls-7" transform="matrix(1, 0, 0, 1, -40.01, -39.79)">
            <path id="Pfad_2-2" data-name="Pfad 2" class="cls-5" d="M62.531,39.467l-2.654-1.995c.025-.415.036-.833.036-1.247s-.011-.833-.036-1.247l2.654-1.995a7.072,7.072,0,0,0,1.825-9.21l-3.3-5.493a7.216,7.216,0,0,0-8.688-2.937l-3.333,1.283a25.267,25.267,0,0,0-2.572-1.434l-.473-3.176A7.132,7.132,0,0,0,38.969,6H32.361a7.126,7.126,0,0,0-7.018,6.029l-.47,3.163A24.218,24.218,0,0,0,22.3,16.628l-3.333-1.286a7.2,7.2,0,0,0-8.688,2.94L6.974,23.769A7.076,7.076,0,0,0,8.8,32.98l2.652,2c-.022.415-.033.833-.033,1.247s.011.833.033,1.247L8.8,39.464a7.08,7.08,0,0,0-1.827,9.213l3.308,5.493a7.213,7.213,0,0,0,8.683,2.937L22.3,55.822a23.743,23.743,0,0,0,2.572,1.437l.47,3.163a7.126,7.126,0,0,0,7.018,6.029h6.608a7.138,7.138,0,0,0,7.02-6.029l.47-3.163a24.748,24.748,0,0,0,2.572-1.434l3.333,1.283a7.2,7.2,0,0,0,8.688-2.94l3.3-5.479a7.077,7.077,0,0,0-1.819-9.221Zm-8.114-3.242a17.246,17.246,0,0,1-.4,3.712l5.212,3.921a1.548,1.548,0,0,1,.418,1.987l-3.3,5.49a1.693,1.693,0,0,1-2,.643l-6.152-2.366a18.939,18.939,0,0,1-6.7,3.715l-.937,6.287a1.636,1.636,0,0,1-1.583,1.341H32.361a1.634,1.634,0,0,1-1.583-1.341l-.937-6.287a18.963,18.963,0,0,1-6.7-3.715l-6.149,2.366a1.693,1.693,0,0,1-2-.643l-3.306-5.49a1.545,1.545,0,0,1,.42-1.987l5.21-3.921a17.376,17.376,0,0,1,0-7.424L12.1,28.591a1.544,1.544,0,0,1-.42-1.987l3.306-5.49a1.693,1.693,0,0,1,2-.643l6.149,2.366a18.962,18.962,0,0,1,6.7-3.715l.937-6.287A1.634,1.634,0,0,1,32.361,11.5h6.608a1.636,1.636,0,0,1,1.583,1.341l.937,6.287a18.939,18.939,0,0,1,6.7,3.715l6.152-2.366a1.693,1.693,0,0,1,2,.643l3.3,5.49a1.548,1.548,0,0,1-.418,1.987l-5.212,3.921a17.246,17.246,0,0,1,.4,3.712ZM35.391,25.234A10.991,10.991,0,1,0,46.382,36.225,10.991,10.991,0,0,0,35.391,25.234Zm0,16.486a5.5,5.5,0,1,1,5.5-5.5,5.5,5.5,0,0,1-5.5,5.5" transform="translate(34.01 33.79)"/>
          </g>
        </g>
      </g>
    </g>
  </g>
</svg>
